Coordinates
version=1
nRows=9
nColumns=24
inDegrees=yes

Units are S.I. units (second, meters, Newtons, ...)
Angles are in degrees.

endheader
time	pelvis_tilt	pelvis_list	pelvis_rotation	pelvis_tx	pelvis_ty	pelvis_tz	hip_flexion_r	hip_adduction_r	hip_rotation_r	knee_angle_r	ankle_angle_r	subtalar_angle_r	mtp_angle_r	hip_flexion_l	hip_adduction_l	hip_rotation_l	knee_angle_l	ankle_angle_l	subtalar_angle_l	mtp_angle_l	lumbar_extension	lumbar_bending	lumbar_rotation
      1.49766667	     -2.21653738	      6.97827174	     -3.04674843	      0.39613580	      0.89619582	      0.34118232	     14.15484925	    -10.61507072	     -6.86331916	    -69.74475557	      7.47195526	      5.01327241	     10.95088179	     15.68493520	     10.59992498	     -5.17398278	    -22.37952119	     10.24001681	     -8.17395632	      0.74553029	     -2.47153164	    -11.05616306	      5.57296530
      1.50183333	     -2.20624368	      6.85597186	     -2.90238061	      0.40093324	      0.89736649	      0.34098121	     14.83448544	    -10.41688811	     -6.89249635	    -69.47151487	      8.07791734	      4.91176637	      9.92365623	     15.04647020	     10.55560328	     -4.92198457	    -21.84710861	     10.22315783	     -8.22388343	      1.08181053	     -2.51815866	    -10.90860159	      5.21755224
      1.50600000	     -2.13991663	      6.71257035	     -2.74462794	      0.40575796	      0.89861315	      0.34079870	     15.41824038	    -10.20236414	     -6.95448318	    -69.11746976	      8.64356383	      4.83386249	      9.88167845	     14.35452293	     10.46901783	     -4.74521540	    -21.34191273	     10.23817863	     -7.98307400	      1.10543649	     -2.64595476	    -10.76744007	      5.14038290
      1.51016667	     -2.05953187	      6.56556218	     -2.58086538	      0.41058402	      0.89986121	      0.34058544	     15.97014703	     -9.99275374	     -7.02840432	    -68.70507268	      9.17056651	      4.75730108	      9.82706494	     13.63679120	     10.38554040	     -4.53203331	    -20.81185162	     10.26068405	     -7.83111277	      1.13145188	     -2.78635058	    -10.60355961	      4.92346588
      1.51433333	     -1.97360879	      6.41692380	     -2.39907031	      0.41539685	      0.90109140	      0.34033307	     16.49741681	     -9.79068716	     -7.12447858	    -68.23698525	      9.65463916	      4.67460818	      9.76067019	     12.91083905	     10.30610857	     -4.27866574	    -20.27365380	     10.26591692	     -7.72330526	      1.15931877	     -2.93706159	    -10.43794185	      4.64351336
      1.51850000	     -1.88464188	      6.28246163	     -2.21188907	      0.42023478	      0.90230396	      0.34005900	     17.00709294	     -9.61629920	     -7.23296901	    -67.71797767	     10.07059093	      4.59793462	      9.59321187	     12.16046903	     10.24750594	     -3.98169583	    -19.68593905	     10.24416270	     -7.70688375	      1.21759868	     -3.06340731	    -10.29947684	      4.22641270
      1.52266667	     -1.78622996	      6.11944551	     -2.01480964	      0.42504061	      0.90349222	      0.33976853	     17.48744382	     -9.41177616	     -7.35628530	    -67.14180850	     10.47432202	      4.48193338	      9.48565382	     11.42059422	     10.14834715	     -3.70912488	    -19.14386714	     10.26196066	     -7.61888858	      1.25493954	     -3.22200315	    -10.09153027	      3.98807170
      1.52683333	     -1.68900778	      5.96111136	     -1.80403607	      0.42984036	      0.90464197	      0.33946649	     17.95282389	     -9.21787762	     -7.49243263	    -66.51758335	     10.84990199	      4.34442594	      9.37080854	     10.68042311	     10.05205909	     -3.41185084	    -18.59178599	     10.25180364	     -7.55520202	      1.29165405	     -3.38005305	     -9.90388493	      3.68458335
      1.53100000	     -1.59873545	      5.81551860	     -1.57915113	      0.43461679	      0.90573945	      0.33913418	     18.41443259	     -9.04640394	     -7.63828537	    -65.85345245	     11.21625967	      4.19547201	      9.15963015	      9.94634994	      9.97173591	     -3.07706667	    -18.02591689	     10.19110687	     -7.55235114	      1.35135082	     -3.53170206	     -9.74699757	      3.29686373
